<svg width="162" height="33" viewBox="0 0 162 33" fill="none" xmlns="http://www.w3.org/2000/svg">
<path d="M15.5676 2.40576C15.8976 1.55427 17.1024 1.55427 17.4324 2.40576L20.4373 10.1588C20.5792 10.5249 20.9222 10.774 21.3142 10.7959L29.6163 11.2579C30.5281 11.3086 30.9004 12.4544 30.1926 13.0314L23.7476 18.2851C23.4432 18.5331 23.3122 18.9363 23.4126 19.3159L25.5387 27.3544C25.7722 28.2373 24.7975 28.9454 24.03 28.4505L17.0419 23.9444C16.712 23.7317 16.288 23.7317 15.9581 23.9444L8.96996 28.4505C8.20248 28.9454 7.22777 28.2373 7.46127 27.3544L9.58738 19.3159C9.68776 18.9363 9.55676 18.5331 9.25245 18.2851L2.80745 13.0314C2.09962 12.4544 2.47192 11.3086 3.38372 11.2579L11.6858 10.7959C12.0778 10.774 12.4208 10.5249 12.5627 10.1588L15.5676 2.40576Z" fill="#FFC400"/>
<path d="M48.5676 2.40576C48.8976 1.55427 50.1024 1.55427 50.4324 2.40576L53.4373 10.1588C53.5792 10.5249 53.9222 10.774 54.3142 10.7959L62.6163 11.2579C63.5281 11.3086 63.9004 12.4544 63.1926 13.0314L56.7476 18.2851C56.4432 18.5331 56.3122 18.9363 56.4126 19.3159L58.5387 27.3544C58.7722 28.2373 57.7975 28.9454 57.03 28.4505L50.0419 23.9444C49.712 23.7317 49.288 23.7317 48.9581 23.9444L41.97 28.4505C41.2025 28.9454 40.2278 28.2373 40.4613 27.3544L42.5874 19.3159C42.6878 18.9363 42.5568 18.5331 42.2524 18.2851L35.8075 13.0314C35.0996 12.4544 35.4719 11.3086 36.3837 11.2579L44.6858 10.7959C45.0778 10.774 45.4208 10.5249 45.5627 10.1588L48.5676 2.40576Z" fill="#FFC400"/>
<path d="M80.0568 2.67685C80.3705 1.78661 81.6295 1.78661 81.9432 2.67685L84.5709 10.1347C84.7044 10.5137 85.0519 10.776 85.453 10.8005L92.8788 11.2551C93.7648 11.3093 94.1462 12.4052 93.4853 12.9978L87.5785 18.2942C87.3049 18.5395 87.1879 18.9152 87.2738 19.2725L89.1937 27.2574C89.4097 28.1556 88.3964 28.8413 87.6429 28.3068L81.5785 24.0054C81.232 23.7596 80.768 23.7596 80.4215 24.0054L74.3571 28.3068C73.6036 28.8413 72.5903 28.1556 72.8063 27.2574L74.7262 19.2725C74.8121 18.9152 74.6951 18.5395 74.4215 18.2942L68.5147 12.9978C67.8538 12.4052 68.2352 11.3093 69.1212 11.2551L76.547 10.8005C76.9481 10.776 77.2956 10.5137 77.4291 10.1347L80.0568 2.67685Z" fill="#FFC400"/>
<path d="M111.568 2.40576C111.898 1.55427 113.102 1.55427 113.432 2.40576L116.437 10.1588C116.579 10.5249 116.922 10.774 117.314 10.7959L125.616 11.2579C126.528 11.3086 126.9 12.4544 126.193 13.0314L119.748 18.2851C119.443 18.5331 119.312 18.9363 119.413 19.3159L121.539 27.3544C121.772 28.2373 120.798 28.9454 120.03 28.4505L113.042 23.9444C112.712 23.7317 112.288 23.7317 111.958 23.9444L104.97 28.4505C104.202 28.9454 103.228 28.2373 103.461 27.3544L105.587 19.3159C105.688 18.9363 105.557 18.5331 105.252 18.2851L98.8075 13.0314C98.0996 12.4544 98.4719 11.3086 99.3837 11.2579L107.686 10.7959C108.078 10.774 108.421 10.5249 108.563 10.1588L111.568 2.40576Z" fill="#FFC400"/>
<path d="M144.568 2.40576C144.898 1.55427 146.102 1.55427 146.432 2.40576L149.437 10.1588C149.579 10.5249 149.922 10.774 150.314 10.7959L158.616 11.2579C159.528 11.3086 159.9 12.4544 159.193 13.0314L152.748 18.2851C152.443 18.5331 152.312 18.9363 152.413 19.3159L154.539 27.3544C154.772 28.2373 153.798 28.9454 153.03 28.4505L146.042 23.9444C145.712 23.7317 145.288 23.7317 144.958 23.9444L137.97 28.4505C137.202 28.9454 136.228 28.2373 136.461 27.3544L138.587 19.3159C138.688 18.9363 138.557 18.5331 138.252 18.2851L131.807 13.0314C131.1 12.4544 131.472 11.3086 132.384 11.2579L140.686 10.7959C141.078 10.774 141.421 10.5249 141.563 10.1588L144.568 2.40576Z" fill="#D9D9D9"/>
</svg>
